# xmcd
#
# Track frame offsets: 
#        150
#        30207
#        45224
#        62575
#        77708
#        96539
#        119720
#        134642
#        154276
#        183806
#        226995
#        250210
#        266938
#        284032
#        299056
#
# Disc length: 4269 seconds
#
# Revision: 0
# Processed by: cddbd v1.4PL0 Copyright (c) Steve Scherf et al.
# Submitted via: ExactAudioCopy v0.95a3
#
DISCID=e310ab0f
DTITLE=Various Artist - 国际影音纪念CD
DYEAR=2002
DGENRE=Pop
TTITLE0=罗西尼/塞尔维亚理发师序曲
TTITLE1=戴玉强/你是这样的人
TTITLE2=陈美/Glorius
TTITLE3=乐海留声/孤独的牧羊人
TTITLE4=腾格尔/怀念战友
TTITLE5=黄江英/但愿人长久
TTITLE6=女子十二乐坊/赛马
TTITLE7=After6/The shadow of your smile
TTITLE8=玄音一埙/念残
TTITLE9=长谷川阳子/科达依无伴奏大提琴奏鸣曲
TTITLE10=何东/牧歌
TTITLE11=乐海留声/金瓶似的小山
TTITLE12=刘雅丽/酒红色的心
TTITLE13=金色大厅/拨弦波尔卡
TTITLE14=麦景图/Stravinsky
EXTD=
EXTT0=
EXTT1=
EXTT2=
EXTT3=
EXTT4=
EXTT5=
EXTT6=
EXTT7=
EXTT8=
EXTT9=
EXTT10=
EXTT11=
EXTT12=
EXTT13=
EXTT14=
PLAYORDER=
